<?xml version="1.0" encoding="UTF-8"?>
<svg id="Layer_2" data-name="Layer 2" xmlns="http://www.w3.org/2000/svg" viewBox="0 0 801.2 561.65">
  <defs>
    <style>
      .cls-1 {
        fill: #0a1f5b;
      }

      .cls-2 {
        fill: #fe0101;
      }
    </style>
  </defs>
  <g id="Layer_1-2" data-name="Layer 1">
    <g>
      <g>
        <g>
          <path class="cls-1" d="M18.21,68.62c12.14-20.7,28.62-36.86,49.45-48.49C88.49,8.5,111.3,2.68,136.09,2.68c28.37,0,53.6,6.97,75.71,20.89,22.1,13.93,38.14,33.67,48.11,59.23h-52.52c-6.9-14.05-16.48-24.53-28.75-31.43-12.27-6.9-26.45-10.35-42.55-10.35-17.63,0-33.35,3.97-47.15,11.88-13.8,7.92-24.6,19.3-32.39,34.12-7.8,14.82-11.69,32.08-11.69,51.75s3.89,36.93,11.69,51.75c7.79,14.82,18.59,26.26,32.39,34.31,13.8,8.05,29.52,12.07,47.15,12.07,16.1,0,30.28-3.45,42.55-10.35,12.27-6.9,21.85-17.38,28.75-31.43h52.52c-9.97,25.56-26.01,45.24-48.11,59.04-22.11,13.8-47.34,20.7-75.71,20.7-25.05,0-47.92-5.81-68.62-17.44-20.7-11.63-37.12-27.79-49.26-48.49C6.07,188.22,0,164.84,0,138.77s6.07-49.45,18.21-70.15Z"/>
          <path class="cls-1" d="M494.52,272.56l-32.97-32.97c-12.78,12.78-26.71,22.3-41.78,28.56-15.08,6.26-31.95,9.39-50.6,9.39s-35.65-3.33-50.22-9.97c-14.57-6.64-25.82-16.16-33.73-28.56-7.93-12.39-11.88-26.77-11.88-43.13,0-18.4,5.24-34.82,15.72-49.26,10.48-14.44,26.07-25.88,46.77-34.31-7.42-8.94-12.65-17.31-15.72-25.11-3.07-7.79-4.6-16.42-4.6-25.88,0-11.75,3-22.23,9.01-31.43,6-9.2,14.63-16.48,25.88-21.85,11.24-5.37,24.28-8.05,39.1-8.05s27.92,2.87,38.53,8.62c10.6,5.75,18.53,13.61,23.77,23.58,5.24,9.97,7.34,21.08,6.33,33.35h-43.7c.25-9.45-2.05-16.8-6.9-22.04-4.86-5.24-11.5-7.86-19.93-7.86s-15.27,2.49-20.51,7.48c-5.24,4.98-7.86,11.06-7.86,18.21s1.98,13.74,5.94,20.51c3.96,6.77,10.93,15.53,20.89,26.26l70.54,70.15,27.22-44.85h47.15l-34.5,59.04-9.59,15.72,64.78,64.4h-57.12ZM432.8,210.84l-70.54-70.92c-30.16,12.01-45.24,30.16-45.24,54.44,0,13.03,4.85,23.96,14.57,32.78,9.71,8.82,22.23,13.23,37.57,13.23,24.02,0,45.23-9.84,63.64-29.52Z"/>
          <path class="cls-1" d="M559.49,68.62c12.14-20.7,28.62-36.86,49.45-48.49,20.83-11.63,43.64-17.44,68.43-17.44,28.37,0,53.6,6.97,75.71,20.89,22.1,13.93,38.14,33.67,48.11,59.23h-52.52c-6.9-14.05-16.48-24.53-28.75-31.43s-26.45-10.35-42.55-10.35c-17.63,0-33.35,3.97-47.15,11.88-13.8,7.92-24.6,19.3-32.39,34.12-7.8,14.82-11.69,32.08-11.69,51.75s3.89,36.93,11.69,51.75c7.79,14.82,18.59,26.26,32.39,34.31,13.8,8.05,29.52,12.07,47.15,12.07,16.1,0,30.28-3.45,42.55-10.35,12.27-6.9,21.85-17.38,28.75-31.43h52.52c-9.97,25.56-26.01,45.24-48.11,59.04-22.11,13.8-47.34,20.7-75.71,20.7-25.05,0-47.92-5.81-68.62-17.44-20.7-11.63-37.13-27.79-49.26-48.49-12.14-20.7-18.21-44.08-18.21-70.15s6.07-49.45,18.21-70.15Z"/>
        </g>
        <path class="cls-2" d="M1.39,384.62c84.91-56.59,198.81-78.95,299.94-72.72,39.39,2.4,77.96,9.64,115.81,18.47,28.12,6.07,56.56,11.06,85.09,14.35,44.92,5.2,90.34,5.37,135.41,1.96,37.46-2.73,74.61-8.36,111.34-16.78,16.43-3.8,32.8-8.25,49.24-13.23-14.15,9.75-29.26,18.17-44.85,25.66-79.07,37.36-167.86,52.38-255.09,47.1-35-2.21-69.63-7.92-103.74-15.62-48.01-11.19-96.79-19.18-146.06-21.08-83.43-2.86-167.14,7.25-247.1,31.88h0Z"/>
      </g>
      <g>
        <path class="cls-1" d="M154.71,437.98v122.26h-12.4v-97.63l-43.59,97.63h-9.04l-43.59-97.27v97.27h-12.4v-122.26h13.11l47.31,105.96,47.31-105.96h13.29Z"/>
        <path class="cls-1" d="M216.82,485.55c3.96-7.5,9.45-13.29,16.48-17.36,7.03-4.08,14.97-6.11,23.83-6.11s17.16,2.13,23.83,6.38c6.67,4.25,11.49,9.69,14.44,16.3v-21.26h12.4v96.74h-12.4v-21.44c-3.07,6.62-7.95,12.08-14.62,16.39-6.68,4.31-14.62,6.47-23.83,6.47s-16.63-2.07-23.65-6.2c-7.03-4.13-12.52-9.98-16.48-17.54-3.96-7.56-5.94-16.3-5.94-26.22s1.98-18.63,5.94-26.13ZM290.61,491.31c-3.19-5.91-7.53-10.45-13.02-13.64-5.49-3.19-11.55-4.78-18.16-4.78s-13,1.54-18.43,4.61c-5.43,3.07-9.72,7.53-12.85,13.38-3.13,5.85-4.7,12.79-4.7,20.82s1.56,14.86,4.7,20.82c3.13,5.97,7.41,10.52,12.85,13.64,5.43,3.13,11.58,4.7,18.43,4.7s12.67-1.59,18.16-4.78c5.49-3.19,9.83-7.73,13.02-13.64,3.19-5.91,4.78-12.76,4.78-20.55s-1.6-14.65-4.78-20.55Z"/>
        <path class="cls-1" d="M394.71,466.68c5.61-3.31,12.49-4.96,20.64-4.96v12.93h-3.37c-8.98,0-16.18,2.42-21.62,7.27-5.43,4.84-8.15,12.93-8.15,24.27v54.04h-12.4v-96.74h12.4v17.19c2.72-6.02,6.88-10.69,12.49-14Z"/>
        <path class="cls-1" d="M467.44,442.59c-1.77-1.77-2.66-3.96-2.66-6.56s.89-4.75,2.66-6.47c1.77-1.71,3.9-2.57,6.38-2.57s4.61.86,6.38,2.57c1.77,1.71,2.66,3.87,2.66,6.47s-.89,4.78-2.66,6.56c-1.77,1.77-3.9,2.66-6.38,2.66s-4.61-.89-6.38-2.66ZM480.02,463.49v96.74h-12.4v-96.74h12.4Z"/>
        <path class="cls-1" d="M615.56,472.44c7.32,7.15,10.98,17.51,10.98,31.1v56.7h-12.22v-55.28c0-10.51-2.63-18.54-7.88-24.1-5.26-5.55-12.43-8.33-21.53-8.33s-16.77,2.95-22.33,8.86c-5.55,5.91-8.33,14.59-8.33,26.04v52.8h-12.4v-96.74h12.4v16.48c3.07-5.91,7.5-10.42,13.29-13.55,5.79-3.13,12.34-4.7,19.67-4.7,11.57,0,21.02,3.57,28.35,10.72Z"/>
        <path class="cls-1" d="M774.85,516.65h-80.27c.35,7.33,2.13,13.58,5.32,18.78,3.19,5.2,7.38,9.13,12.58,11.78,5.2,2.66,10.87,3.99,17.01,3.99,8.03,0,14.79-1.95,20.29-5.85,5.49-3.9,9.13-9.15,10.9-15.77h13.11c-2.37,9.45-7.41,17.16-15.15,23.12-7.74,5.97-17.45,8.95-29.15,8.95-9.1,0-17.25-2.04-24.45-6.11-7.21-4.07-12.84-9.86-16.92-17.36-4.08-7.5-6.11-16.27-6.11-26.31s2.01-18.84,6.02-26.4c4.01-7.56,9.63-13.35,16.83-17.36,7.2-4.01,15.41-6.02,24.63-6.02s17.27,2.01,24.18,6.02c6.91,4.02,12.23,9.42,15.95,16.21,3.72,6.79,5.58,14.32,5.58,22.59,0,4.25-.12,7.5-.35,9.75ZM758.29,488.12c-3.01-5.08-7.12-8.92-12.32-11.52-5.2-2.6-10.87-3.9-17.01-3.9-9.21,0-17.07,2.95-23.57,8.86-6.5,5.91-10.1,14.24-10.81,24.98h68.04c.12-7.2-1.33-13.35-4.34-18.43Z"/>
      </g>
    </g>
  </g>
</svg>